<svg version="1.1" xmlns="http://www.w3.org/2000/svg" viewBox="0 0 512 512">
  <g fillRule="evenodd">
    <path d="M365.88,162.16c-.86,0-1.72.03-2.57.09,1.67-5.49,2.57-11.33,2.57-17.37,0-32.94-26.74-59.68-59.68-59.68-7.81,0-15.28,1.5-22.12,4.24-3.77-35.19-25.79-64.95-56.4-79.63l-50.3,100.61c-2.46,4.92-.45,10.96,4.47,13.42l46.11,23.06c4.92,2.46,6.93,8.5,4.47,13.42l-39.21,78.41h172.65c21.13,0,38.28-17.15,38.28-38.27s-17.15-38.28-38.28-38.28Z"/>
    <path d="M205.61,169.24c2.46-4.92.45-10.96-4.47-13.42l-46.11-23.06c-4.92-2.46-6.93-8.5-4.47-13.42L208.74,2.98c-7.78-1.94-15.92-2.98-24.3-2.98-50.52,0-92.36,37.46-99.23,86.1-2.84-.32-5.73-.48-8.66-.48C34.3,85.61,0,119.92,0,162.16s34.3,76.55,76.55,76.55h94.32l34.73-69.47Z"/>
  </g>
</svg>
